<mxfile host="app.diagrams.net" modified="2022-06-21T01:46:28.629Z" agent="5.0 (Windows)" etag="Vl9qh-YG7kviKBmzVVH0" version="17.5.0" type="github">
  <diagram id="4WrgQo9HDSLUE4Cu_YAy" name="Page-1">
    <mxGraphModel dx="494" dy="288" grid="1" gridSize="10" guides="1" tooltips="1" connect="1" arrows="1" fold="1" page="1" pageScale="1" pageWidth="827" pageHeight="1169" math="0" shadow="0">
      <root>
        <mxCell id="0" />
        <mxCell id="1" parent="0" />
        <mxCell id="fKZ0vUbIrdOs_RoYnyiB-1" value="" style="endArrow=classic;html=1;rounded=0;" edge="1" parent="1">
          <mxGeometry width="50" height="50" relative="1" as="geometry">
            <mxPoint x="240" y="440" as="sourcePoint" />
            <mxPoint x="540" y="440" as="targetPoint" />
          </mxGeometry>
        </mxCell>
        <mxCell id="fKZ0vUbIrdOs_RoYnyiB-2" value="" style="endArrow=classic;html=1;rounded=0;" edge="1" parent="1">
          <mxGeometry width="50" height="50" relative="1" as="geometry">
            <mxPoint x="240" y="440" as="sourcePoint" />
            <mxPoint x="240" y="280" as="targetPoint" />
          </mxGeometry>
        </mxCell>
        <mxCell id="fKZ0vUbIrdOs_RoYnyiB-3" value="" style="endArrow=none;html=1;rounded=0;" edge="1" parent="1">
          <mxGeometry width="50" height="50" relative="1" as="geometry">
            <mxPoint x="320" y="440" as="sourcePoint" />
            <mxPoint x="320" y="420" as="targetPoint" />
          </mxGeometry>
        </mxCell>
        <mxCell id="fKZ0vUbIrdOs_RoYnyiB-4" value="" style="endArrow=none;html=1;rounded=0;" edge="1" parent="1">
          <mxGeometry width="50" height="50" relative="1" as="geometry">
            <mxPoint x="400" y="440" as="sourcePoint" />
            <mxPoint x="400" y="420" as="targetPoint" />
          </mxGeometry>
        </mxCell>
        <mxCell id="fKZ0vUbIrdOs_RoYnyiB-5" value="" style="endArrow=none;html=1;rounded=0;" edge="1" parent="1">
          <mxGeometry width="50" height="50" relative="1" as="geometry">
            <mxPoint x="480" y="440" as="sourcePoint" />
            <mxPoint x="480" y="420" as="targetPoint" />
          </mxGeometry>
        </mxCell>
        <mxCell id="fKZ0vUbIrdOs_RoYnyiB-6" value="Mar" style="text;html=1;strokeColor=none;fillColor=none;align=center;verticalAlign=middle;whiteSpace=wrap;rounded=0;" vertex="1" parent="1">
          <mxGeometry x="221" y="434" width="60" height="30" as="geometry" />
        </mxCell>
        <mxCell id="fKZ0vUbIrdOs_RoYnyiB-8" value="Jun" style="text;html=1;strokeColor=none;fillColor=none;align=center;verticalAlign=middle;whiteSpace=wrap;rounded=0;" vertex="1" parent="1">
          <mxGeometry x="241" y="434" width="60" height="30" as="geometry" />
        </mxCell>
        <mxCell id="fKZ0vUbIrdOs_RoYnyiB-10" value="Sep" style="text;html=1;strokeColor=none;fillColor=none;align=center;verticalAlign=middle;whiteSpace=wrap;rounded=0;" vertex="1" parent="1">
          <mxGeometry x="262" y="434" width="60" height="30" as="geometry" />
        </mxCell>
        <mxCell id="fKZ0vUbIrdOs_RoYnyiB-11" value="Dec" style="text;html=1;strokeColor=none;fillColor=none;align=center;verticalAlign=middle;whiteSpace=wrap;rounded=0;" vertex="1" parent="1">
          <mxGeometry x="285" y="434" width="60" height="30" as="geometry" />
        </mxCell>
        <mxCell id="fKZ0vUbIrdOs_RoYnyiB-19" value="Mar" style="text;html=1;strokeColor=none;fillColor=none;align=center;verticalAlign=middle;whiteSpace=wrap;rounded=0;" vertex="1" parent="1">
          <mxGeometry x="306" y="434" width="60" height="30" as="geometry" />
        </mxCell>
        <mxCell id="fKZ0vUbIrdOs_RoYnyiB-20" value="Jun" style="text;html=1;strokeColor=none;fillColor=none;align=center;verticalAlign=middle;whiteSpace=wrap;rounded=0;" vertex="1" parent="1">
          <mxGeometry x="326" y="434" width="60" height="30" as="geometry" />
        </mxCell>
        <mxCell id="fKZ0vUbIrdOs_RoYnyiB-21" value="Sep" style="text;html=1;strokeColor=none;fillColor=none;align=center;verticalAlign=middle;whiteSpace=wrap;rounded=0;" vertex="1" parent="1">
          <mxGeometry x="347" y="434" width="60" height="30" as="geometry" />
        </mxCell>
        <mxCell id="fKZ0vUbIrdOs_RoYnyiB-22" value="Dec" style="text;html=1;strokeColor=none;fillColor=none;align=center;verticalAlign=middle;whiteSpace=wrap;rounded=0;" vertex="1" parent="1">
          <mxGeometry x="370" y="434" width="60" height="30" as="geometry" />
        </mxCell>
        <mxCell id="fKZ0vUbIrdOs_RoYnyiB-23" value="Mar" style="text;html=1;strokeColor=none;fillColor=none;align=center;verticalAlign=middle;whiteSpace=wrap;rounded=0;" vertex="1" parent="1">
          <mxGeometry x="391" y="434" width="60" height="30" as="geometry" />
        </mxCell>
        <mxCell id="fKZ0vUbIrdOs_RoYnyiB-24" value="Jun" style="text;html=1;strokeColor=none;fillColor=none;align=center;verticalAlign=middle;whiteSpace=wrap;rounded=0;" vertex="1" parent="1">
          <mxGeometry x="411" y="434" width="60" height="30" as="geometry" />
        </mxCell>
        <mxCell id="fKZ0vUbIrdOs_RoYnyiB-25" value="Sep" style="text;html=1;strokeColor=none;fillColor=none;align=center;verticalAlign=middle;whiteSpace=wrap;rounded=0;" vertex="1" parent="1">
          <mxGeometry x="432" y="434" width="60" height="30" as="geometry" />
        </mxCell>
        <mxCell id="fKZ0vUbIrdOs_RoYnyiB-26" value="Dec" style="text;html=1;strokeColor=none;fillColor=none;align=center;verticalAlign=middle;whiteSpace=wrap;rounded=0;" vertex="1" parent="1">
          <mxGeometry x="455" y="434" width="60" height="30" as="geometry" />
        </mxCell>
        <mxCell id="fKZ0vUbIrdOs_RoYnyiB-27" value="" style="curved=1;endArrow=none;html=1;rounded=0;endFill=0;" edge="1" parent="1">
          <mxGeometry width="50" height="50" relative="1" as="geometry">
            <mxPoint x="240" y="410" as="sourcePoint" />
            <mxPoint x="320" y="410" as="targetPoint" />
            <Array as="points">
              <mxPoint x="260" y="400" />
              <mxPoint x="290" y="340" />
              <mxPoint x="310" y="400" />
            </Array>
          </mxGeometry>
        </mxCell>
        <mxCell id="fKZ0vUbIrdOs_RoYnyiB-28" value="" style="curved=1;endArrow=none;html=1;rounded=0;endFill=0;" edge="1" parent="1">
          <mxGeometry width="50" height="50" relative="1" as="geometry">
            <mxPoint x="320" y="410" as="sourcePoint" />
            <mxPoint x="420" y="360" as="targetPoint" />
            <Array as="points">
              <mxPoint x="340" y="400" />
              <mxPoint x="360" y="340" />
              <mxPoint x="400" y="440" />
            </Array>
          </mxGeometry>
        </mxCell>
        <mxCell id="fKZ0vUbIrdOs_RoYnyiB-31" value="" style="endArrow=none;html=1;rounded=0;" edge="1" parent="1">
          <mxGeometry width="50" height="50" relative="1" as="geometry">
            <mxPoint x="430" y="410" as="sourcePoint" />
            <mxPoint x="420" y="360" as="targetPoint" />
          </mxGeometry>
        </mxCell>
        <mxCell id="fKZ0vUbIrdOs_RoYnyiB-32" value="" style="curved=1;endArrow=none;html=1;rounded=0;endFill=0;" edge="1" parent="1">
          <mxGeometry width="50" height="50" relative="1" as="geometry">
            <mxPoint x="430" y="410" as="sourcePoint" />
            <mxPoint x="500" y="410" as="targetPoint" />
            <Array as="points">
              <mxPoint x="430" y="370" />
              <mxPoint x="440" y="340" />
              <mxPoint x="460" y="390" />
              <mxPoint x="480" y="420" />
            </Array>
          </mxGeometry>
        </mxCell>
        <mxCell id="fKZ0vUbIrdOs_RoYnyiB-34" value="&amp;nbsp;Temperature/â„ƒ" style="text;html=1;strokeColor=none;fillColor=none;align=center;verticalAlign=middle;whiteSpace=wrap;rounded=0;rotation=-90;" vertex="1" parent="1">
          <mxGeometry x="156" y="345" width="129" height="30" as="geometry" />
        </mxCell>
        <mxCell id="fKZ0vUbIrdOs_RoYnyiB-35" value="" style="ellipse;whiteSpace=wrap;html=1;aspect=fixed;fillColor=none;dashed=1;strokeColor=#CC0000;" vertex="1" parent="1">
          <mxGeometry x="315" y="400" width="30" height="30" as="geometry" />
        </mxCell>
        <mxCell id="fKZ0vUbIrdOs_RoYnyiB-36" value="t&lt;sub&gt;2&lt;/sub&gt;" style="text;html=1;strokeColor=none;fillColor=none;align=center;verticalAlign=middle;whiteSpace=wrap;rounded=0;dashed=1;" vertex="1" parent="1">
          <mxGeometry x="301" y="404" width="60" height="30" as="geometry" />
        </mxCell>
        <mxCell id="fKZ0vUbIrdOs_RoYnyiB-39" value="" style="ellipse;whiteSpace=wrap;html=1;aspect=fixed;fillColor=none;dashed=1;strokeColor=#CC0000;" vertex="1" parent="1">
          <mxGeometry x="421" y="399" width="30" height="30" as="geometry" />
        </mxCell>
        <mxCell id="fKZ0vUbIrdOs_RoYnyiB-40" value="t&lt;sub&gt;1&lt;/sub&gt;" style="text;html=1;strokeColor=none;fillColor=none;align=center;verticalAlign=middle;whiteSpace=wrap;rounded=0;dashed=1;" vertex="1" parent="1">
          <mxGeometry x="407" y="403" width="60" height="30" as="geometry" />
        </mxCell>
      </root>
    </mxGraphModel>
  </diagram>
</mxfile>
